<svg id="Layer_1" enable-background="new 0 0 512 512" viewBox="0 0 512 512" xmlns="http://www.w3.org/2000/svg"><g id="Layer_2_00000138562618752449367440000008617471607388558487_"><g id="_54_copy_6"><g id="_1"><g id="_25"><g id="card"><path d="m24.9 46.7 272.2-29.5c15.3-1.7 29 9.4 30.7 24.7l41.6 384.5c1.7 15.3-9.4 29-24.7 30.7l-272.2 29.6c-15.3 1.7-29-9.4-30.7-24.7l-41.6-384.6c-1.7-15.3 9.4-29 24.7-30.7z"/><path d="m25.5 52.8 272.2-29.5c12-1.3 22.7 7.4 24 19.3l41.6 384.5c1.3 12-7.4 22.7-19.3 24l-272.2 29.6c-12 1.3-22.7-7.4-24-19.3l-41.6-384.6c-1.3-12 7.3-22.7 19.3-24z" fill="#fff"/></g><path d="m237 273.1c-1.8-10-12.8-15.7-21.8-11.6-.4 12.5-6.8 23.1-14.1 24.8 1-2.5.3-5.3-1.7-7 6.2-3.4 9.5-8.6 10.1-15.6.1-1.9-.3-3.6-2.5-3.6s-2.4 1.5-2.6 3.3c-.6 6.9-5.1 11.9-11.3 12.8-6.4 1-12-2.3-14.7-8.6-.7-1.6-1.5-3-3.5-2.3s-1.9 2.6-1.2 4.2c2.4 6.1 7.8 10.5 14.3 11.6.5.1 1 .2 1.4.3-.5 1.2-.7 2.5-.4 3.7.2 1 .6 2 1.2 2.8-11.4-1.6-18.2-8.1-21.1-18.9-11.9.5-18.5 8.6-16.6 20 2.3 13.9 4.6 27.8 6.9 41.7l.5 3 17.5-2.9-3.5-21.5 5.1-.8 3.5 21.5 39.9-6.6-3.6-21.6 5-.8 3.6 21.6 17.5-2.9c-.7-4-1.3-8-1.9-11.8-2.1-11.7-3.9-23.3-6-34.8z"/><path d="m159.3 257.4c4-.6 8-1.4 12-1.9 1.4-.2 2.8.1 4 .7 10 5.5 22.5 3.4 30-5.2.8-.8 1.9-1.4 3-1.6 4.3-.8 8.6-1.4 13-2.2 3.4-.4 5.8-3.5 5.3-6.9 0-.2-.1-.4-.1-.7-.8-3.6-4-5.6-7.9-4.7-2.5.6-4.4 0-5.5-2.3-1.6-3.6-3.2-7.2-4.8-10.9.7-1.2 1.1-2.4 1.2-3.8-.1-1-.2-2-.5-3-.8-4.8-.9-4-4.5-3.6l-.6.1s.5-5.8.8-8.8l-18.6 3.1 1.4 8.4-7.4 1.2-1.4-8.3-18.5 3 3.5 7.8c-4.1 1.5-4.1 1.5-3.4 5.9.1.9.2 1.8.5 2.7.5 1 1.3 2 2.2 2.7-.3 3.6-.7 7.2-1 10.8s-1.1 4.4-4.6 4.9c-4.1.6-6.5 3.6-5.9 7.4s3.7 5.9 7.8 5.2zm45.1-26.6c1.4 7-.3 12.9-5.4 17.5-5.5 4.9-11.9 6-18.6 3.2-6.5-2.6-9.9-7.8-10.9-14.9z"/><path d="m142.6 280c-2.5 15.3-4.9 30.6-7.4 46-.6 3.7.9 6.8 3.4 9.4.7.8 1.8 1.3 2.8 1.3 2.6-.3 5.1-.7 7.8-1.2l4.2-.7-.4-2.7c-.1-.4-.1-.8-.2-1.2l-.7-4.2c-2.1-12.5-4.2-25-6.1-37.6-.5-2.6-.5-5.2 0-7.8 1.1-4 2.9-7.8 4.5-11.7-4.1 2-7.1 5.8-7.9 10.4z"/><path d="m256.9 288.2c-4.4-8.3-8.7-16.6-13.1-24.8-2.1-4.3-6.5-7-11.3-7 8.3 4.9 10.6 12.9 11.9 21.6 1.8 12.5 4.1 25 6.1 37.5l.5 3.1c3.4-.5 6.3-1 9.3-1.5 4.2-.7 5.8-2.1 5.9-6.4.1-2.6-.5-5.1-1.5-7.5-2.3-5.1-5.1-10-7.8-15z"/><path d="m157.9 202.4 6.9-1.1 12.7-2.1-1-6.1v-.2l-.1-.3c-.2-1.5-.5-3-.8-4.5-5.6.9-11 1.4-16.1 2.8-4.4 1.1-5.9 7.3-3.1 10.9.4.3.9.6 1.5.6z"/><path d="m185.2 198c6.6-1.1 12.9-2.1 19.2-3.2.6-.2 1.1-.6 1.4-1.2 1.6-4.6-2.2-9.8-6.9-9.3-5.1.5-10.1 1.6-15.4 2.5z"/><path d="m188.3 180.6c-.3-6-1.9-7.3-7.5-6.3l-7.5 1.2c-5.2.9-6.4 3-4.5 8.3z"/><path d="m43.4 127.6c.6 3.3 2.6 6.1 5.4 7.8 2.7 1.9 6.1 2.6 9.3 2.1 3.1-.5 5.8-2.1 7.8-4.5 1.2.6 2.5 1 3.8 1.1 1.7 0 3.5-.2 5.2-.5l-1-6.1-3.4.6c-.6-.1-1.2-.2-1.7-.5.3-1.4.4-2.8.2-4.2l-4.6-28.4c-.5-3.3-2.5-6.2-5.4-7.8-2.8-1.9-6.1-2.6-9.4-2.1s-6.2 2.3-8.2 4.9c-2.2 2.5-3.2 5.9-2.7 9.2l3 17.9c-2.1.5-3.2.7-3.3.8l1 5.8 3.3-.6zm1.5-29.4c-.2-1.6.3-3.2 1.5-4.3 1.1-1.3 2.6-2.2 4.2-2.5 1.7-.3 3.4.1 4.8 1 1.4.7 2.4 2.1 2.7 3.6l4.5 27.1c-2.1-1.8-4.4-3.4-6.8-4.8-2.4-1.5-5.1-2.2-7.9-2.2zm4 24c1 0 1.9.3 2.7.8l9.1 6.4c-.9.9-2.1 1.5-3.4 1.8-1.7.3-3.4-.1-4.8-1-1.4-.7-2.4-2-2.8-3.6z"/><path d="m72 165.1c-.9 1.3-1.9 2.6-2.9 3.7-.2.3-.7 0-.5-.3 1.8-2.9 2.9-6.2 3.1-9.6.1-1.1-.1-2.2-.4-3.3-2.4-8.8-9.8-6.8-9.8-6.8s-7.5.5-7 9.6c.1 1.1.3 2.2.7 3.2 1.3 3.2 3.4 6 6 8.1.3.2-.1.6-.4.4-1.4-.8-2.7-1.6-4-2.6-4.3-3.2-13 2-10.7 10.9 1.6 6.3 3.2 8.8 5.9 9.8 3.2 1.2 6.7.3 9-2.3 1.1-1.3 2.1-2.8 2.8-4.4.1-.3.6-.2.6.1.2 3.5.5 13.6-.5 20.8 2.1-.7 4.2-1.3 6.3-1.8 2.2-.2 4.4-.4 6.5-.3-3.3-6.4-6.2-16.1-7.2-19.5-.1-.3.3-.5.5-.2 1.2 1.3 2.5 2.4 4 3.3 2.9 1.7 6.5 1.4 9.2-.7 2.2-1.8 3-4.7 2.4-11.2-.6-9.2-10.6-11.4-13.6-6.9z"/><path d="m335.8 374.8c-.6-3.3-2.6-6.1-5.4-7.8-2.7-1.9-6.1-2.6-9.3-2.1-3.1.5-5.8 2.1-7.8 4.5-1.2-.6-2.5-1-3.8-1.1-1.7 0-3.5.2-5.2.5l1 6.1 3.5-.6c.6.1 1.2.2 1.7.5-.3 1.4-.4 2.8-.2 4.2l4.7 28.5c.5 3.3 2.5 6.1 5.4 7.8 2.8 1.9 6.1 2.6 9.4 2.1s6.2-2.3 8.2-4.9c2.2-2.5 3.2-5.9 2.6-9.2l-3-17.9c2.1-.5 3.2-.7 3.3-.8l-1-5.8-3.3.5zm-1.4 29.4c.2 1.6-.3 3.2-1.5 4.3-1.1 1.3-2.6 2.2-4.2 2.5-1.7.3-3.4-.1-4.8-1-1.4-.7-2.4-2-2.7-3.6l-4.5-27.1c2.1 1.8 4.4 3.4 6.8 4.8 2.4 1.5 5.1 2.2 7.9 2.2zm-4-24c-1 0-1.9-.3-2.7-.8l-9.1-6.4c.9-.9 2.1-1.5 3.4-1.8 1.7-.3 3.4.1 4.8 1 1.4.7 2.4 2 2.8 3.6z"/><path d="m307.1 336.6c.9-1.3 1.8-2.6 2.9-3.8.2-.3.7 0 .5.3-1.8 2.9-2.9 6.2-3.1 9.6 0 1.1.1 2.2.4 3.3 2.5 8.8 9.8 6.8 9.8 6.8s7.5-.5 7.1-9.6c-.1-1.1-.3-2.2-.7-3.2-1.3-3.2-3.4-6-6-8.1-.3-.2 0-.6.4-.5 1.4.8 2.7 1.7 4 2.6 4.3 3.2 13-2 10.7-10.9-1.6-6.3-3.2-8.8-5.9-9.8-3.2-1.1-6.7-.2-8.9 2.3-1.1 1.3-2.1 2.8-2.8 4.4-.1.3-.6.2-.6-.1-.2-3.5-.5-13.6.5-20.8-2.1.7-4.2 1.3-6.3 1.8-2.2.2-4.4.4-6.5.3 3.3 6.4 6.2 16.1 7.2 19.5.1.3-.3.5-.5.3-1.2-1.3-2.6-2.4-4-3.3-2.9-1.7-6.6-1.4-9.2.7-2.2 1.8-2.9 4.7-2.4 11.2.5 9.3 10.4 11.4 13.4 7z"/></g><g id="group"><g id="card-2"><path d="m107.8 34.7h273.8c15.4 0 27.9 12.5 27.9 27.9v386.8c0 15.4-12.5 27.9-27.9 27.9h-273.8c-15.4 0-27.9-12.5-27.9-27.9v-386.8c.1-15.4 12.6-27.9 27.9-27.9z" fill="#f11f20"/><path d="m107.8 40.8h273.8c12 0 21.8 9.8 21.8 21.8v386.8c0 12-9.8 21.8-21.8 21.8h-273.8c-12 0-21.8-9.8-21.8-21.8v-386.8c0-12 9.8-21.8 21.8-21.8z" fill="#fff"/></g><g fill="#f11f20"><path d="m136.1 115.2h-4v-10.8l4.9-7.6 7.9 18.4h-5.1v5.6h15.7v-5.6h-4.3l-10.4-24.4 10.2-15.8h4.5v-5.7h-15.7v5.7h4.9l-12.6 19.5v-19.5h4v-5.7h-14.3v5.7h4.7v40.2h-4.7v5.6h14.3z"/><path d="m142.5 138.4c-1.3 1.8-2.2 3.8-2.6 6 0 .1-.1.2-.2.2s-.1-.1-.2-.2c-.3-1.8-1-3.6-2-5.1-4-6.3-13.7-6.6-18.3-.7-1.9 2.4-3.1 6.1-2.3 11.8 2.2 15.8 22.8 37.4 22.8 37.4s20.6-21.6 22.8-37.4c.9-6.4-.8-10.3-3.1-12.6-4.6-4.9-12.9-4.6-16.9.6z"/><path d="m363.3 396.8h4v10.8l-4.9 7.6-7.9-18.4h5v-5.7h-15.7v5.7h4.3l10.4 24.3-10.2 15.9h-4.5v5.7h15.7v-5.7h-4.8l12.6-19.5v19.5h-4v5.7h14.3v-5.7h-4.8v-40.2h4.8v-5.7h-14.3z"/><path d="m382.4 361.7c-2.2-15.8-22.8-37.4-22.8-37.4s-20.6 21.7-22.8 37.4c-.9 6.4.8 10.3 3.1 12.6 4.6 4.7 13 4.5 17-.7 1.3-1.8 2.2-3.8 2.6-6 0-.1.1-.2.2-.2s.1.1.2.2c.3 1.8 1 3.6 2 5.1 4 6.3 13.7 6.6 18.3.7 1.8-2.3 3-6 2.2-11.7z"/><path d="m300.5 305.4c-5.9-3.4-13.4-2.7-18.5 1.8-.7.6-1.3 1.1-2.1 1.9-1.6-3.5-3-6.8-4.6-10-.3-.6-1-1.5-1.5-1.5-2.4-.1-4.7-.1-7.3-.1-.5 0-.9.4-.9.9 0 .1 0 .3.1.4 4.1 9.1 8 17.9 11.8 26.6.1.3 0 .6-.2.7-.3.2-.6.1-.8-.1-1.2-1.3-2.3-2.7-3.1-4.2-3.5-7.4-6.7-14.9-10.1-22.3-.3-.7-1-1.8-1.6-1.9-2.4-.2-4.9-.1-7.5-.1-.5 0-.9.4-.9.9 0 .1 0 .2.1.4 4.1 9.1 8 17.9 11.8 26.6.1.3 0 .6-.2.8-.3.2-.6.1-.8-.1-1.2-1.3-2.3-2.7-3.1-4.2-3-6.4-6.1-12.9-8.7-19.5-1.4-3.5-2.9-5.8-7-4.9-.1 0-.2-.2-.4-.3 10.4-11 3.4-27.8-11.9-28.3l14.7-33.1c.4-1 0-2.1-1-2.5-.2-.1-.5-.2-.8-.2-1.6 0-3 0-4.4-.1-1.4-.2-2.7.6-3.1 2-6.4 14.5-12.9 29-19.3 43.4-1.6 3.5-2 7.4-.9 11.1.1.3.1.6.1.9 0 .2-.1.4-.3.4-.1 0-.2 0-.2-.1-.2-.1-.3-.3-.5-.5-2.9-4.1-2.4-8.4-.5-12.6 6.2-14 12.4-27.9 18.7-41.9.5-.9.1-2-.8-2.5-.3-.1-.6-.2-1-.2-1.6 0-3.1 0-4.5-.1-1.7-.1-2.4.6-3.1 2-6.4 14.5-12.9 29-19.3 43.4-.6 1.3-1 2.7-1.2 4.2-.1 2.4-.1 4.8-.1 7 0 .2-.2.4-.4.5-.1 0-.3-.1-.4-.2-2.3-2.8-2.6-7.2-.5-12 4.7-10.5 9.3-21 14-31.4 1.6-3.5 3.1-7 4.8-10.7.4-.9 0-2-.9-2.5-.2-.1-.5-.2-.8-.2-1.5 0-2.9 0-4.2-.1-1.4-.1-2.8.7-3.4 2-6.3 14.4-12.8 28.8-19.2 43.1-1.6 3.6-2 7.6-.9 11.4.1.4.2.8.3 1.2 0 .2-.1.3-.2.4-.2.1-.4 0-.5-.2-.8-1.4-1.5-2.8-2.1-4.2-1.1-3.2-.2-6.2 1.1-9.2 4.7-10.6 9.4-21.1 14.1-31.7 1.5-3.4 3-6.7 4.6-10.2.4-.9 0-2-.9-2.5-.2-.1-.5-.2-.8-.2-1.5 0-2.8 0-4.2-.1-1.8-.1-2.7.5-3.4 2.2-6.2 14.1-12.6 28.2-18.8 42.3-5.5 12.3 2.1 23.8 15.6 23.9 9.7 0 19.4.1 29.1 0 1.5-.2 3 .7 3.4 2.2 3.2 7.5 6.6 15 10 22.4 2.8 6.1 7.8 9.6 14.5 9.7 12.3.2 24.6.1 36.9 0 .7 0 1.4 0 2-.1 7.3-.9 13.1-6.5 14.1-13.8 1.1-6-2.3-12.9-8-16.1zm-66.7-13c-4 .1-7.3-3.1-7.3-7 0-.1 0-.2 0-.3 0-4 3.2-7.3 7.1-7.3 4.1-.1 7.4 3.2 7.5 7.2s-3.2 7.4-7.2 7.4c0 0 0 0-.1 0zm19 33.5c-.2.2-.4.2-.6 0-1-.9-2.3-1.8-2.8-2.9-3.5-7.4-6.8-14.9-10.2-22.5l2.2-1 11.6 25.9c.1.2 0 .4-.2.5zm39.6.8c-4.1-.1-7.3-3.4-7.2-7.5s3.4-7.3 7.5-7.2c4 .1 7.3 3.4 7.2 7.5-.1 4-3.4 7.3-7.5 7.2z"/><path d="m296.7 273.2h1.8c1.1 0 2-.8 2.1-1.9 0-.3-.1-.6-.2-.9-3-6.7-6-13.4-9-20.1-1.3-2.9-.8-5 1.9-6.8.8-.5 1.8-.9 2.7-1.2.8-.3 1.3-1.1 1.3-1.9v-4.6c0-1.1-.9-2-2-2-.1 0-.1 0-.2 0-5.6.5-11.3 5.2-13 11.2-.8 2.4-.7 5 .5 7.2 1.7 3.3 3.1 6.8 4.6 10.2 1.6 3.7 3.2 7.3 5 11.3-3.8.6-7 3-8.5 6.5-2.4-2.3-4.7-4.5-7-6.6 1-.2 1.8-1.1 1.8-2.1v-3.7c0-1.2-1-2.2-2.2-2.2-.2 0-.4 0-.6.1-2.8.8-4.8 3.2-5.5 6.7-.2.8-.7 1.5-1.3 2-1.7 1.5-3.7 2.6-5.2 4.2-4 4.4-7.8 9-11.7 13.6-.6.6-1.1 1.3-1.7 2-.2.2-.2.6.1.8.1.1.2.1.3.1 7.5 0 15 .1 22.6 0 3.7 0 7-2 8.8-5.2l1.3-2.2c2.5 5.9 7 7.6 12.6 7.5s11.5 0 17.2 0h2.8c.3 0 .6-.2.6-.5 0-.2-.1-.3-.2-.5-6.7-6.9-11.3-15.5-19.7-21z"/><path d="m305 208.9c.6-1.2 0-2.7-1.2-3.3-.3-.2-.7-.2-1.1-.2h-105.3c-1.4 0-2.5 1.1-2.5 2.5 0 .4.1.7.2 1 2.6 5.4 7.6 9.1 13.5 10.2 9.3 1.5 16-1.9 20.5-9.2.7-1.2 2.2-1.6 3.4-.9.4.2.6.5.9.9 3.6 6.1 9.1 9.5 16.8 9.5s13.1-3.6 16.7-9.7c.7-1.2 2.2-1.6 3.4-.9.3.2.6.5.8.8 4.9 7.6 11.4 10.8 19.2 9.7 6.3-1 11.8-4.8 14.7-10.4z"/><path d="m297.3 226.3c0-2.3-1.9-4.2-4.2-4.2h-86.2c-2.3-.1-4.3 1.7-4.4 4s1.7 4.3 4 4.4h.4 86.2c2.3-.1 4.2-1.9 4.2-4.2z"/><path d="m276.7 250.5c1.7-.3 2-1.2 1.8-2.7-.8-8.9-8.7-15.4-17.5-14.6-5.5.5-10.4 3.8-12.9 8.7-.4 1-.8 2-1.1 3-.2.6.1 1.2.7 1.4.1 0 .2.1.4.1h4.3c1.8.3 3.7-.5 4.7-2 2.2-2.9 6.2-3.4 9.1-1.2.3.2.6.5.9.8-.1.1-.2.3-.4.3-4.2 1.3-8.4 2.5-12.5 3.9-2.5.8-6.1 1-7.2 2.8-1.3 1.9-.4 5.3-.4 8v.1c.2.4.6.6 1 .4h.1c7.2-3.7 15-2.9 22.8-2.9.8 0 1.5-.6 1.5-1.4 0-1.2 0-2.2.5-2.9.9-1.2 2.7-1.5 4.2-1.8z"/><path d="m225.4 202.5c3 0 5.5-2.2 5.8-5.2.3 3.2 3.2 5.5 6.4 5.2s5.5-3.2 5.2-6.4-3.2-5.5-6.4-5.2c-.4 0-.8.1-1.2.3 2.4-2.2 2.5-5.9.3-8.2s-5.9-2.5-8.2-.3c-2.4 2.2-2.5 5.9-.3 8.2l.3.3c-.6-.2-1.3-.3-1.9-.3-3.2.1-5.7 2.8-5.6 6.1.2 2.9 2.6 5.4 5.6 5.5z"/><path d="m263.1 202.5c3 0 5.5-2.2 5.8-5.2.3 3.2 3.2 5.5 6.4 5.2s5.5-3.2 5.2-6.4-3.2-5.5-6.4-5.2c-.4 0-.8.1-1.2.3 2.4-2.2 2.5-5.9.3-8.2-2.2-2.4-5.9-2.5-8.2-.3-2.4 2.2-2.5 5.9-.3 8.2.1.1.2.2.3.3-.6-.2-1.3-.3-1.9-.3-3.2.1-5.7 2.8-5.6 6.1.1 2.9 2.5 5.4 5.6 5.5z"/><path d="m192.1 200.3c1.4 2 4 2.7 6.3 1.8 2.2-.7 3.8-2.8 3.8-5.1.3-2.3-1.1-4.6-3.3-5.4-1.3-.4-2.6-.7-4-.8.4-.7.8-1.4 1.1-2.1 1-2.4.2-5.2-1.9-6.7-2-1.4-4.8-1.4-6.8 0-2.2 1.4-3.1 4.3-2 6.7 2.1 3.9 4.4 7.8 6.8 11.6z"/><path d="m301.2 202c2.4 1.2 5.4.5 6.9-1.8 2.4-3.7 4.6-7.6 6.7-11.5 1.1-2.2.5-4.5-1.4-6.2-1.6-1.7-4.2-2.1-6.3-1.1-2.2.8-3.6 3-3.4 5.4.3 1.4.7 2.8 1.2 4.2-.6 0-1.1 0-1.7 0-2.6.1-4.8 2-5.3 4.5-.5 2.6.8 5.4 3.3 6.5z"/><path d="m283.9 302.4c2.1-.1 3.8-1.6 4.1-3.7.1-.5-.3-1.1-.8-1.1-.1 0-.1 0-.2 0h-7.5c-.6 0-1 .4-1 1v.3c.6 2.3 3 3.9 5.4 3.5z"/><path d="m233.6 280c-2.8.1-5.1 2.4-5 5.3.1 2.8 2.4 5.1 5.3 5 2.8-.1 5-2.4 5-5.2 0-2.9-2.3-5.2-5.2-5.2 0 .1 0 .1-.1.1z"/><path d="m292.4 314.2c-2.8 0-5.1 2.4-5.1 5.2s2.4 5.1 5.2 5.1 5.1-2.4 5.1-5.2-2.3-5.1-5.2-5.1z"/></g></g><g id="card-3"><path d="m89 397.2 105.1-371.9c4.2-14.8 19.6-23.4 34.4-19.2l263.3 74.4c14.8 4.2 23.4 19.6 19.2 34.4l-105.1 371.8c-4.2 14.8-19.6 23.4-34.4 19.2l-263.3-74.4c-14.8-4.1-23.4-19.5-19.2-34.3z"/><path d="m94.8 398.8 105.1-371.9c3.3-11.6 15.3-18.3 26.9-15l263.3 74.4c11.6 3.3 18.3 15.3 15 26.9l-105.1 371.9c-3.3 11.6-15.3 18.3-26.9 15l-263.3-74.4c-11.5-3.2-18.3-15.3-15-26.9z" fill="#fff"/></g><path d="m261.5 261c-2.1 25.2 18.5 32.2 34.9 8.5-5.1 15-11.8 29.4-20 43 9 .6 17.7 3.1 25.6 7.2.1-15.9 1.9-31.7 5.4-47.1 1.5 28.7 22.8 33.6 34.1 11 13.8-27.3-18.9-86-18.9-86s-58.6 33-61.1 63.4z"/><path d="m233.3 90.3-2.9-.8 2.4-4.9 9.8 2.8-.5 5.4-2.9-.8-1.7 6 13.2 3.7 1.7-6-4.3-1.2 4.1-45.8-7.4-2.1-20.4 41.2-4.3-1.2-1.7 6 13.2 3.7zm11.9-30.6-1.9 21.4-7.6-2.2z"/><path d="m205.6 137.8c-.9 10.9 8 13.9 15.1 3.7-2.2 6.5-5.1 12.8-8.7 18.6 1.9.1 3.9.5 5.7 1 1.9.5 3.7 1.3 5.4 2.1 0-6.9.8-13.7 2.4-20.4.7 12.4 9.9 14.6 14.8 4.8 6-11.8-8.2-37.3-8.2-37.3s-25.4 14.3-26.5 27.5z"/><path d="m376.1 424.4 2.8.8-2.4 4.9-9.8-2.8.5-5.5 2.9.8 1.7-6-13.2-3.7-1.7 6 4.3 1.2-4.1 45.8 7.4 2.1 20.5-41.2 4.3 1.2 1.7-6-13.2-3.7zm-11.9 30.6 1.9-21.4 7.6 2.2z"/><path d="m403.9 376.9c.9-10.9-8-14-15.1-3.7 2.2-6.5 5.1-12.8 8.7-18.6-3.9-.3-7.7-1.3-11.1-3.1 0 6.9-.8 13.7-2.3 20.4-.6-12.4-9.9-14.5-14.8-4.8-6 11.8 8.2 37.3 8.2 37.3s25.2-14.3 26.4-27.5z"/></g></g></g></svg>